# xmcd
#
# Track frame offsets:
#	150
#	26057
#	39082
#	52739
#	81141
#	97327
#	112119
#	128737
#	141724
#	156889
#	177333
#	192296
#	219567
#	245511
#	268970
#	285725
#	301026
#	318112
#
# Disc length: 4420 seconds
#
# Revision: 1
# Processed by: cddbd v1.5.2PL0 Copyright (c) Steve Scherf et al.
# Submitted via: EZCDAudioConverter 1.3.4.1
#
DISCID=06114212
DTITLE=John Martyn - The Island Years - Disc 06
DYEAR=2013
DGENRE=
TTITLE0=Solid Air
TTITLE1=Over The Hill
TTITLE2=Don't Want To Know
TTITLE3=I'd Rather Be The Devil
TTITLE4=Go Down Easy
TTITLE5=Dreams By The Sea
TTITLE6=May You Never
TTITLE7=The Man In The Station
TTITLE8=The Easy Blues - Gentle Blues
TTITLE9=Solid Air [Alternate Take]
TTITLE10=Over The Hill [Take 2]
TTITLE11=I'd Rather Be The Devil [Take 2]
TTITLE12=I'd Rather Be The Devil [Take 3]
TTITLE13=Go Down Easy [Take 3]
TTITLE14=Go Down Easy [Take 4]
TTITLE15=Dreams By The Sea [Take 2]
TTITLE16=May You Never [Take 2]
TTITLE17=The Man In The Station [Take 2]
EXTD=
EXTT0=
EXTT1=
EXTT2=
EXTT3=
EXTT4=
EXTT5=
EXTT6=
EXTT7=
EXTT8=
EXTT9=
EXTT10=
EXTT11=
EXTT12=
EXTT13=
EXTT14=
EXTT15=
EXTT16=
EXTT17=
PLAYORDER=
